<?xml version="1.0" encoding="utf-8"?>
<!-- Generator: Adobe Illustrator 23.0.3, SVG Export Plug-In . SVG Version: 6.00 Build 0)  -->
<svg version="1.1"
	 id="svg5772" xmlns:cc="http://creativecommons.org/ns#" xmlns:dc="http://purl.org/dc/elements/1.1/" xmlns:inkscape="http://www.inkscape.org/namespaces/inkscape" xmlns:rdf="http://www.w3.org/1999/02/22-rdf-syntax-ns#" xmlns:sodipodi="http://sodipodi.sourceforge.net/DTD/sodipodi-0.dtd" xmlns:svg="http://www.w3.org/2000/svg"
	 xmlns="http://www.w3.org/2000/svg" xmlns:xlink="http://www.w3.org/1999/xlink" x="0px" y="0px" viewBox="0 0 210.2 33.3"
	 style="enable-background:new 0 0 210.2 33.3;" xml:space="preserve">
<style type="text/css">
	.st0{fill:#E53834;}
	.st1{fill:#E15E5D;}
	.st2{fill:url(#SVGID_1_);}
	.st3{fill:url(#SVGID_2_);}
	.st4{fill:url(#SVGID_3_);}
	.st5{fill:url(#SVGID_4_);}
	.st6{fill:url(#SVGID_5_);}
	.st7{fill:url(#SVGID_6_);}
	.st8{fill:#757879;}
	.st9{fill:#979B9C;}
	.st10{clip-path:url(#SVGID_8_);}
	.st11{fill:#97999A;}
	.st12{fill:url(#SVGID_9_);}
	.st13{fill:url(#SVGID_10_);}
	.st14{fill:url(#SVGID_11_);}
	.st15{fill:url(#SVGID_12_);}
</style>
<sodipodi:namedview  bordercolor="#666666" borderopacity="1.0" id="base" inkscape:current-layer="layer1" inkscape:cx="76.026852" inkscape:cy="14.5" inkscape:document-units="px" inkscape:pageopacity="0.0" inkscape:pageshadow="2" inkscape:window-height="692" inkscape:window-maximized="1" inkscape:window-width="1280" inkscape:window-x="0" inkscape:window-y="1" inkscape:zoom="8.3970588" pagecolor="#ffffff" showgrid="false" units="px">
	</sodipodi:namedview>
<g>
	<path class="st0" d="M60.1,30.7L59.4,30l-3.9-3.9l-2.1,2.1l4.6,4.6c0.5,0.5,1.1,0.6,1.8,0l0.4-0.4C60.7,31.9,60.6,31.2,60.1,30.7z"
		/>
</g>
<g>
	<path class="st1" d="M59.9,32.7l0.2-0.2c0.6-0.6,0.5-1.3,0-1.8L59.4,30l-3.9-3.9l-1.1,1.1L59.9,32.7z"/>
</g>
<linearGradient id="SVGID_1_" gradientUnits="userSpaceOnUse" x1="2.391" y1="6.6973" x2="2.391" y2="27.4444">
	<stop  offset="0.1489" style="stop-color:#E53834"/>
	<stop  offset="1" style="stop-color:#C43738"/>
</linearGradient>
<path class="st2" d="M4,6.7H0.8c-0.1,0-0.2,0.1-0.2,0.2v20.4c0,0.1,0.1,0.2,0.2,0.2H4c0.1,0,0.2-0.1,0.2-0.2V6.9
	C4.1,6.8,4.1,6.7,4,6.7z"/>
<linearGradient id="SVGID_2_" gradientUnits="userSpaceOnUse" x1="18.7485" y1="6.6973" x2="18.7485" y2="27.4444">
	<stop  offset="0.1489" style="stop-color:#E53834"/>
	<stop  offset="1" style="stop-color:#C43738"/>
</linearGradient>
<path class="st3" d="M27.6,6.7h-3.2c-0.1,0-0.2,0.1-0.2,0.2v15.4L13.9,6.8c0,0-0.1-0.1-0.1-0.1H9.9c-0.1,0-0.2,0.1-0.2,0.2v20.4
	c0,0.1,0.1,0.2,0.2,0.2h3.2c0.1,0,0.2-0.1,0.2-0.2V11.9l10.5,15.5c0,0,0.1,0.1,0.1,0.1h3.8c0.1,0,0.2-0.1,0.2-0.2V6.9
	C27.8,6.8,27.7,6.7,27.6,6.7z"/>
<linearGradient id="SVGID_3_" gradientUnits="userSpaceOnUse" x1="70.1803" y1="27.9516" x2="70.1803" y2="6.6973">
	<stop  offset="0" style="stop-color:#383B3E"/>
	<stop  offset="1" style="stop-color:#505457"/>
</linearGradient>
<path class="st4" d="M78.1,6.7h-3.2c-0.1,0-0.2,0.1-0.2,0.2v12.5c0,0.6-0.1,1.2-0.2,1.8c-0.2,0.6-0.4,1.2-0.8,1.7
	c-0.4,0.5-0.8,0.9-1.4,1.3c-0.6,0.3-1.3,0.5-2.2,0.5c-0.9,0-1.6-0.2-2.2-0.5c-0.6-0.3-1.1-0.7-1.4-1.3c-0.4-0.5-0.6-1.1-0.8-1.7
	c-0.2-0.6-0.2-1.2-0.2-1.8V6.9c0-0.1-0.1-0.2-0.2-0.2h-3.2c-0.1,0-0.2,0.1-0.2,0.2v12.9c0,1.2,0.2,2.3,0.6,3.3c0.4,1,1,1.9,1.7,2.6
	c0.7,0.7,1.6,1.3,2.6,1.7c1,0.4,2.1,0.6,3.2,0.6c1.1,0,2.2-0.2,3.2-0.6c1-0.4,1.9-1,2.6-1.7c0.7-0.7,1.3-1.6,1.7-2.6
	c0.4-1,0.6-2.1,0.6-3.3V6.9C78.3,6.8,78.2,6.7,78.1,6.7z"/>
<linearGradient id="SVGID_4_" gradientUnits="userSpaceOnUse" x1="91.2735" y1="27.4444" x2="91.2735" y2="6.6973">
	<stop  offset="0" style="stop-color:#383B3E"/>
	<stop  offset="1" style="stop-color:#505457"/>
</linearGradient>
<path class="st5" d="M98.2,24.1H87.7v-5.6H97c0.1,0,0.2-0.1,0.2-0.2v-3c0-0.1-0.1-0.2-0.2-0.2h-9.3v-5.1h10c0.1,0,0.2-0.1,0.2-0.2
	v-3c0-0.1-0.1-0.2-0.2-0.2H84.3c-0.1,0-0.2,0.1-0.2,0.2v20.4c0,0.1,0.1,0.2,0.2,0.2h13.9c0.1,0,0.2-0.1,0.2-0.2v-3
	C98.4,24.2,98.3,24.1,98.2,24.1z"/>
<linearGradient id="SVGID_5_" gradientUnits="userSpaceOnUse" x1="109.7958" y1="27.9516" x2="109.7958" y2="6.1908">
	<stop  offset="0" style="stop-color:#383B3E"/>
	<stop  offset="1" style="stop-color:#505457"/>
</linearGradient>
<path class="st6" d="M114.1,16.6c-0.7-0.4-1.6-0.7-2.5-1c-0.8-0.2-1.6-0.5-2.3-0.7c-0.7-0.3-1.2-0.6-1.7-1c-0.4-0.4-0.6-0.9-0.6-1.6
	c0-0.3,0.1-0.5,0.2-0.9c0.1-0.3,0.3-0.6,0.5-0.8c0.3-0.3,0.6-0.5,1.1-0.7c0.4-0.2,1-0.3,1.7-0.3c0.7,0,1.4,0.1,1.9,0.4
	c0.6,0.3,1,0.7,1.3,1.1l0.2,0.3c0,0,0.1,0.1,0.1,0.1c0,0,0.1,0,0.1,0l2.6-2.4c0.1-0.1,0.1-0.1,0-0.2l-0.2-0.2c-0.8-1-1.7-1.6-2.8-2
	c-1-0.3-2.1-0.5-3.2-0.5c-1.3,0-2.3,0.2-3.2,0.6c-0.9,0.4-1.6,0.9-2.2,1.5c-0.6,0.6-1,1.2-1.3,1.9c-0.3,0.7-0.4,1.4-0.4,2
	c0,1.4,0.3,2.5,0.8,3.3c0.5,0.8,1.2,1.5,1.9,1.9c0.8,0.5,1.6,0.8,2.5,1.1c0.8,0.2,1.6,0.5,2.3,0.8c0.7,0.3,1.2,0.6,1.7,0.9
	c0.4,0.3,0.6,0.8,0.6,1.4c0,0.5-0.1,0.9-0.3,1.2c-0.2,0.4-0.5,0.7-0.8,0.9c-0.3,0.3-0.7,0.4-1.2,0.6c-1.1,0.3-2.3,0.2-3.4-0.3
	c-0.7-0.3-1.3-0.8-1.7-1.5l-0.2-0.2c0,0-0.1-0.1-0.1-0.1c0,0-0.1,0-0.1,0l-2.6,2.3c-0.1,0.1-0.1,0.1,0,0.2l0.1,0.2
	c0.7,1,1.7,1.7,2.9,2.2c1.2,0.5,2.5,0.7,3.8,0.7c1,0,2-0.1,2.8-0.4c0.9-0.3,1.7-0.7,2.3-1.3c0.7-0.6,1.2-1.3,1.6-2.1
	c0.4-0.8,0.6-1.8,0.6-2.8c0-1.3-0.3-2.3-0.8-3.1C115.6,17.6,114.9,17,114.1,16.6z"/>
<linearGradient id="SVGID_6_" gradientUnits="userSpaceOnUse" x1="128.4731" y1="27.4444" x2="128.4731" y2="6.6973">
	<stop  offset="0" style="stop-color:#383B3E"/>
	<stop  offset="1" style="stop-color:#505457"/>
</linearGradient>
<path class="st7" d="M136.5,6.7h-16c-0.1,0-0.2,0.1-0.2,0.2v3c0,0.1,0.1,0.2,0.2,0.2h6.3v17.2c0,0.1,0.1,0.2,0.2,0.2h3.2
	c0.1,0,0.2-0.1,0.2-0.2V10.1h6.3c0.1,0,0.2-0.1,0.2-0.2v-3C136.7,6.8,136.6,6.7,136.5,6.7z"/>
<g>
	<path class="st8" d="M52.7,27.6l2.1-2.1l-0.6-0.6c-0.5-0.5-1.1-0.6-1.8,0l-0.4,0.4c-0.6,0.6-0.5,1.3,0,1.8L52.7,27.6z"/>
</g>
<path class="st9" d="M44.5,5C38,5,32.7,10.3,32.7,16.8c0,6.5,5.3,11.7,11.7,11.7c6.5,0,11.7-5.3,11.7-11.7C56.2,10.3,51,5,44.5,5z
	 M44.5,25.2c-4.6,0-8.4-3.8-8.4-8.4c0-4.6,3.8-8.4,8.4-8.4c4.6,0,8.4,3.8,8.4,8.4C52.9,21.4,49.1,25.2,44.5,25.2z"/>
<path class="st8" d="M51.9,7.7c-0.2,1.3-0.5,2.6-0.9,3.9c1.1,1.4,1.8,3.2,1.8,5.2c0,4.6-3.8,8.4-8.4,8.4c-2,0-3.8-0.7-5.2-1.8
	c-1.2,0.4-2.5,0.7-3.9,0.9c2.2,2.6,5.4,4.3,9.1,4.3c6.5,0,11.7-5.3,11.7-11.7C56.2,13.1,54.6,9.8,51.9,7.7z"/>
<g>
	<defs>
		<path id="SVGID_7_" d="M49.5,11.7c2.8,2.8,2.8,7.3,0,10.1c-2.8,2.8-7.3,2.8-10.1,0c-2.8-2.8-2.8-7.3,0-10.1
			C42.2,8.9,46.7,8.9,49.5,11.7z"/>
	</defs>
	<clipPath id="SVGID_8_">
		<use xlink:href="#SVGID_7_"  style="overflow:visible;"/>
	</clipPath>
	<g class="st10">
		<path class="st11" d="M29.5,8.8c0.5,0,1-0.4,1-1.2c0-0.6-0.4-1.2-1-1.2c-0.5,0-1,0.4-1,1.2C28.5,8.2,28.9,8.8,29.5,8.8z M29.5,6.9
			c0.4,0,0.6,0.4,0.6,0.7c0,0.5-0.3,0.7-0.6,0.7C29.2,8.4,29,8,29,7.7C29,7.2,29.2,6.9,29.5,6.9z"/>
		<rect x="31.1" y="6.5" class="st11" width="0.4" height="2.2"/>
		<path class="st11" d="M33.2,8.8c0.5,0,1-0.4,1-1.2c0-0.6-0.4-1.2-1-1.2c-0.5,0-1,0.4-1,1.2C32.2,8.2,32.6,8.8,33.2,8.8z M33.2,6.9
			c0.4,0,0.6,0.4,0.6,0.7c0,0.5-0.3,0.7-0.6,0.7c-0.4,0-0.6-0.4-0.6-0.7C32.6,7.2,32.9,6.9,33.2,6.9z"/>
		<path class="st11" d="M35.8,8.8c0.5,0,1-0.4,1-1.2c0-0.6-0.4-1.2-1-1.2c-0.5,0-1,0.4-1,1.2C34.7,8.2,35.1,8.8,35.8,8.8z M35.7,6.9
			c0.4,0,0.6,0.4,0.6,0.7c0,0.5-0.3,0.7-0.6,0.7c-0.4,0-0.6-0.4-0.6-0.7C35.2,7.2,35.5,6.9,35.7,6.9z"/>
		<path class="st11" d="M38.3,8.8c0.5,0,1-0.4,1-1.2c0-0.6-0.4-1.2-1-1.2c-0.5,0-1,0.4-1,1.2C37.3,8.2,37.7,8.8,38.3,8.8z M38.3,6.9
			c0.4,0,0.6,0.4,0.6,0.7c0,0.5-0.3,0.7-0.6,0.7c-0.4,0-0.6-0.4-0.6-0.7C37.7,7.2,38,6.9,38.3,6.9z"/>
		<rect x="39.9" y="6.5" class="st11" width="0.4" height="2.2"/>
		<path class="st11" d="M42,8.8c0.5,0,1-0.4,1-1.2c0-0.6-0.4-1.2-1-1.2c-0.5,0-1,0.4-1,1.2C41,8.2,41.3,8.8,42,8.8z M41.9,6.9
			c0.4,0,0.6,0.4,0.6,0.7c0,0.5-0.3,0.7-0.6,0.7c-0.4,0-0.6-0.4-0.6-0.7C41.4,7.2,41.7,6.9,41.9,6.9z"/>
		<rect x="43.6" y="6.5" class="st11" width="0.4" height="2.2"/>
		<path class="st11" d="M45.6,8.8c0.5,0,1-0.4,1-1.2c0-0.6-0.4-1.2-1-1.2c-0.5,0-1,0.4-1,1.2C44.6,8.2,45,8.8,45.6,8.8z M45.6,6.9
			c0.4,0,0.6,0.4,0.6,0.7c0,0.5-0.3,0.7-0.6,0.7C45.3,8.4,45,8,45,7.7C45,7.2,45.3,6.9,45.6,6.9z"/>
		<path class="st11" d="M48.2,8.8c0.5,0,1-0.4,1-1.2c0-0.6-0.4-1.2-1-1.2c-0.5,0-1,0.4-1,1.2C47.2,8.2,47.6,8.8,48.2,8.8z M48.2,6.9
			c0.4,0,0.6,0.4,0.6,0.7c0,0.5-0.3,0.7-0.6,0.7c-0.4,0-0.6-0.4-0.6-0.7C47.6,7.2,47.9,6.9,48.2,6.9z"/>
		<rect x="49.8" y="6.5" class="st11" width="0.4" height="2.2"/>
		<path class="st11" d="M51.8,8.8c0.5,0,1-0.4,1-1.2c0-0.6-0.4-1.2-1-1.2c-0.5,0-1,0.4-1,1.2C50.8,8.2,51.2,8.8,51.8,8.8z M51.8,6.9
			c0.4,0,0.6,0.4,0.6,0.7c0,0.5-0.3,0.7-0.6,0.7c-0.4,0-0.6-0.4-0.6-0.7C51.3,7.2,51.5,6.9,51.8,6.9z"/>
		<path class="st11" d="M54.4,8.8c0.5,0,1-0.4,1-1.2c0-0.6-0.4-1.2-1-1.2c-0.5,0-1,0.4-1,1.2C53.4,8.2,53.8,8.8,54.4,8.8z M54.4,6.9
			c0.4,0,0.6,0.4,0.6,0.7c0,0.5-0.3,0.7-0.6,0.7c-0.4,0-0.6-0.4-0.6-0.7C53.8,7.2,54.1,6.9,54.4,6.9z"/>
		<path class="st11" d="M57,8.8c0.5,0,1-0.4,1-1.2c0-0.6-0.4-1.2-1-1.2c-0.5,0-1,0.4-1,1.2C55.9,8.2,56.3,8.8,57,8.8z M56.9,6.9
			c0.4,0,0.6,0.4,0.6,0.7c0,0.5-0.3,0.7-0.6,0.7c-0.4,0-0.6-0.4-0.6-0.7C56.4,7.2,56.7,6.9,56.9,6.9z"/>
		<path class="st11" d="M59.5,8.8c0.5,0,1-0.4,1-1.2c0-0.6-0.4-1.2-1-1.2c-0.5,0-1,0.4-1,1.2C58.5,8.2,58.9,8.8,59.5,8.8z M59.5,6.9
			c0.4,0,0.6,0.4,0.6,0.7c0,0.5-0.3,0.7-0.6,0.7c-0.4,0-0.6-0.4-0.6-0.7C58.9,7.2,59.2,6.9,59.5,6.9z"/>
		<path class="st11" d="M29.5,12.1c0.5,0,1-0.4,1-1.2c0-0.6-0.4-1.2-1-1.2c-0.5,0-1,0.4-1,1.2C28.5,11.5,28.9,12.1,29.5,12.1z
			 M29.5,10.2c0.4,0,0.6,0.4,0.6,0.7c0,0.5-0.3,0.8-0.6,0.8c-0.4,0-0.6-0.4-0.6-0.7C29,10.5,29.2,10.2,29.5,10.2z"/>
		<rect x="31.1" y="9.8" class="st11" width="0.4" height="2.2"/>
		<path class="st11" d="M33.2,12.1c0.5,0,1-0.4,1-1.2c0-0.6-0.4-1.2-1-1.2c-0.5,0-1,0.4-1,1.2C32.2,11.5,32.6,12.1,33.2,12.1z
			 M33.2,10.2c0.4,0,0.6,0.4,0.6,0.7c0,0.5-0.3,0.8-0.6,0.8c-0.4,0-0.6-0.4-0.6-0.7C32.6,10.5,32.9,10.2,33.2,10.2z"/>
		<path class="st11" d="M35.8,12.1c0.5,0,1-0.4,1-1.2c0-0.6-0.4-1.2-1-1.2c-0.5,0-1,0.4-1,1.2C34.7,11.5,35.1,12.1,35.8,12.1z
			 M35.7,10.2c0.4,0,0.6,0.4,0.6,0.7c0,0.5-0.3,0.8-0.6,0.8c-0.4,0-0.6-0.4-0.6-0.7C35.2,10.5,35.5,10.2,35.7,10.2z"/>
		<rect x="37.4" y="9.8" class="st11" width="0.4" height="2.2"/>
		<path class="st11" d="M39.4,9.8c-0.5,0-1,0.4-1,1.2c0,0.6,0.4,1.2,1,1.2c0.5,0,1-0.4,1-1.2C40.4,10.4,40,9.8,39.4,9.8z M39.4,10.2
			c0.4,0,0.6,0.4,0.6,0.7c0,0.5-0.3,0.8-0.6,0.8c-0.4,0-0.6-0.4-0.6-0.7C38.8,10.5,39.1,10.2,39.4,10.2z"/>
		<path class="st11" d="M42,12.1c0.5,0,1-0.4,1-1.2c0-0.6-0.4-1.2-1-1.2c-0.5,0-1,0.4-1,1.2C41,11.5,41.3,12.1,42,12.1z M41.9,10.2
			c0.4,0,0.6,0.4,0.6,0.7c0,0.5-0.3,0.8-0.6,0.8c-0.4,0-0.6-0.4-0.6-0.7C41.4,10.5,41.7,10.2,41.9,10.2z"/>
		<rect x="43.6" y="9.8" class="st11" width="0.4" height="2.2"/>
		<path class="st11" d="M46.6,10.9c0-0.6-0.4-1.2-1-1.2c-0.5,0-1,0.4-1,1.2c0,0.6,0.4,1.2,1,1.2C46.1,12.1,46.6,11.7,46.6,10.9z
			 M45.6,10.2c0.4,0,0.6,0.4,0.6,0.7c0,0.5-0.3,0.8-0.6,0.8c-0.4,0-0.6-0.4-0.6-0.7C45,10.5,45.3,10.2,45.6,10.2z"/>
		<path class="st11" d="M48.2,12.1c0.5,0,1-0.4,1-1.2c0-0.6-0.4-1.2-1-1.2c-0.5,0-1,0.4-1,1.2C47.2,11.5,47.6,12.1,48.2,12.1z
			 M48.2,10.2c0.4,0,0.6,0.4,0.6,0.7c0,0.5-0.3,0.8-0.6,0.8c-0.4,0-0.6-0.4-0.6-0.7C47.6,10.5,47.9,10.2,48.2,10.2z"/>
		<rect x="49.8" y="9.8" class="st11" width="0.4" height="2.2"/>
		<path class="st11" d="M52.8,10.9c0-0.6-0.4-1.2-1-1.2c-0.5,0-1,0.4-1,1.2c0,0.6,0.4,1.2,1,1.2C52.3,12.1,52.8,11.7,52.8,10.9z
			 M51.8,10.2c0.4,0,0.6,0.4,0.6,0.7c0,0.5-0.3,0.8-0.6,0.8c-0.4,0-0.6-0.4-0.6-0.7C51.3,10.5,51.5,10.2,51.8,10.2z"/>
		<path class="st11" d="M54.4,12.1c0.5,0,1-0.4,1-1.2c0-0.6-0.4-1.2-1-1.2c-0.5,0-1,0.4-1,1.2C53.4,11.5,53.8,12.1,54.4,12.1z
			 M54.4,10.2c0.4,0,0.6,0.4,0.6,0.7c0,0.5-0.3,0.8-0.6,0.8c-0.4,0-0.6-0.4-0.6-0.7C53.8,10.5,54.1,10.2,54.4,10.2z"/>
		<rect x="56" y="9.8" class="st11" width="0.4" height="2.2"/>
		<path class="st11" d="M57,11c0,0.6,0.4,1.2,1,1.2c0.5,0,1-0.4,1-1.2c0-0.6-0.4-1.2-1-1.2C57.6,9.8,57,10.2,57,11z M58,10.2
			c0.4,0,0.6,0.4,0.6,0.7c0,0.5-0.3,0.8-0.6,0.8c-0.4,0-0.6-0.4-0.6-0.7C57.5,10.5,57.8,10.2,58,10.2z"/>
		<path class="st11" d="M59.6,11c0,0.6,0.4,1.2,1,1.2c0.5,0,1-0.4,1-1.2c0-0.6-0.4-1.2-1-1.2C60.1,9.8,59.6,10.2,59.6,11z
			 M60.6,10.2c0.4,0,0.6,0.4,0.6,0.7c0,0.5-0.3,0.8-0.6,0.8c-0.4,0-0.6-0.4-0.6-0.7C60,10.5,60.3,10.2,60.6,10.2z"/>
		<path class="st11" d="M29.5,15.4c0.5,0,1-0.4,1-1.2c0-0.6-0.4-1.2-1-1.2c-0.5,0-1,0.4-1,1.2C28.5,14.8,28.9,15.4,29.5,15.4z
			 M29.5,13.5c0.4,0,0.6,0.4,0.6,0.7c0,0.5-0.3,0.7-0.6,0.7c-0.4,0-0.6-0.4-0.6-0.7C29,13.8,29.2,13.5,29.5,13.5z"/>
		<path class="st11" d="M32.1,15.4c0.5,0,1-0.4,1-1.2c0-0.6-0.4-1.2-1-1.2c-0.5,0-1,0.4-1,1.2C31.1,14.8,31.5,15.4,32.1,15.4z
			 M32.1,13.5c0.4,0,0.6,0.4,0.6,0.7c0,0.5-0.3,0.7-0.6,0.7c-0.4,0-0.6-0.4-0.6-0.7C31.5,13.8,31.8,13.5,32.1,13.5z"/>
		<rect x="33.7" y="13.1" class="st11" width="0.4" height="2.2"/>
		<path class="st11" d="M35.8,15.4c0.5,0,1-0.4,1-1.2c0-0.6-0.4-1.2-1-1.2c-0.5,0-1,0.4-1,1.2C34.7,14.8,35.1,15.4,35.8,15.4z
			 M35.7,13.5c0.4,0,0.6,0.4,0.6,0.7c0,0.5-0.3,0.7-0.6,0.7c-0.4,0-0.6-0.4-0.6-0.7C35.2,13.8,35.5,13.5,35.7,13.5z"/>
		<rect x="37.4" y="13.1" class="st11" width="0.4" height="2.2"/>
		<path class="st11" d="M39.4,13.1c-0.5,0-1,0.4-1,1.2c0,0.6,0.4,1.2,1,1.2c0.5,0,1-0.4,1-1.2C40.4,13.7,40,13.1,39.4,13.1z
			 M39.4,13.5c0.4,0,0.6,0.4,0.6,0.7c0,0.5-0.3,0.7-0.6,0.7c-0.4,0-0.6-0.4-0.6-0.7C38.8,13.8,39.1,13.5,39.4,13.5z"/>
		<rect x="41" y="13.1" class="st11" width="0.4" height="2.2"/>
		<rect x="42.1" y="13.1" class="st11" width="0.4" height="2.2"/>
		<path class="st11" d="M44.2,15.4c0.5,0,1-0.4,1-1.2c0-0.6-0.4-1.2-1-1.2c-0.5,0-1,0.4-1,1.2C43.2,14.8,43.5,15.4,44.2,15.4z
			 M44.1,13.5c0.4,0,0.6,0.4,0.6,0.7c0,0.5-0.3,0.7-0.6,0.7c-0.4,0-0.6-0.4-0.6-0.7C43.6,13.8,43.9,13.5,44.1,13.5z"/>
		<rect x="45.8" y="13.1" class="st11" width="0.4" height="2.2"/>
		<path class="st11" d="M47.8,15.4c0.5,0,1-0.4,1-1.2c0-0.6-0.4-1.2-1-1.2c-0.5,0-1,0.4-1,1.2C46.8,14.8,47.2,15.4,47.8,15.4z
			 M47.8,13.5c0.4,0,0.6,0.4,0.6,0.7c0,0.5-0.3,0.7-0.6,0.7c-0.4,0-0.6-0.4-0.6-0.7C47.2,13.8,47.5,13.5,47.8,13.5z"/>
		<path class="st11" d="M50.4,15.4c0.5,0,1-0.4,1-1.2c0-0.6-0.4-1.2-1-1.2c-0.5,0-1,0.4-1,1.2C49.4,14.8,49.8,15.4,50.4,15.4z
			 M50.4,13.5c0.4,0,0.6,0.4,0.6,0.7c0,0.5-0.3,0.7-0.6,0.7c-0.4,0-0.6-0.4-0.6-0.7C49.8,13.8,50.1,13.5,50.4,13.5z"/>
		<rect x="52" y="13.1" class="st11" width="0.4" height="2.2"/>
		<path class="st11" d="M54,15.4c0.5,0,1-0.4,1-1.2c0-0.6-0.4-1.2-1-1.2c-0.5,0-1,0.4-1,1.2C53,14.8,53.4,15.4,54,15.4z M54,13.5
			c0.4,0,0.6,0.4,0.6,0.7c0,0.5-0.3,0.7-0.6,0.7c-0.4,0-0.6-0.4-0.6-0.7C53.5,13.8,53.7,13.5,54,13.5z"/>
		<path class="st11" d="M56.6,15.4c0.5,0,1-0.4,1-1.2c0-0.6-0.4-1.2-1-1.2c-0.5,0-1,0.4-1,1.2C55.6,14.8,56,15.4,56.6,15.4z
			 M56.6,13.5c0.4,0,0.6,0.4,0.6,0.7c0,0.5-0.3,0.7-0.6,0.7c-0.4,0-0.6-0.4-0.6-0.7C56,13.8,56.3,13.5,56.6,13.5z"/>
		<rect x="58.2" y="13.1" class="st11" width="0.4" height="2.2"/>
		<path class="st11" d="M61.2,14.2c0-0.6-0.4-1.2-1-1.2c-0.5,0-1,0.4-1,1.2c0,0.6,0.4,1.2,1,1.2C60.7,15.4,61.2,15,61.2,14.2z
			 M60.2,13.5c0.4,0,0.6,0.4,0.6,0.7c0,0.5-0.3,0.7-0.6,0.7c-0.4,0-0.6-0.4-0.6-0.7C59.7,13.8,60,13.5,60.2,13.5z"/>
		<rect x="28.6" y="16.4" class="st11" width="0.4" height="2.2"/>
		<path class="st11" d="M31.6,17.5c0-0.6-0.4-1.2-1-1.2c-0.5,0-1,0.4-1,1.2c0,0.6,0.4,1.2,1,1.2C31.1,18.7,31.6,18.3,31.6,17.5z
			 M30.6,16.8c0.4,0,0.6,0.4,0.6,0.7c0,0.5-0.3,0.7-0.6,0.7c-0.4,0-0.6-0.4-0.6-0.7C30.1,17.1,30.3,16.8,30.6,16.8z"/>
		<path class="st11" d="M34.2,17.5c0-0.6-0.4-1.2-1-1.2c-0.5,0-1,0.4-1,1.2c0,0.6,0.4,1.2,1,1.2C33.7,18.7,34.2,18.3,34.2,17.5z
			 M33.2,16.8c0.4,0,0.6,0.4,0.6,0.7c0,0.5-0.3,0.7-0.6,0.7c-0.4,0-0.6-0.4-0.6-0.7C32.6,17.1,32.9,16.8,33.2,16.8z"/>
		<rect x="34.8" y="16.4" class="st11" width="0.4" height="2.2"/>
		<path class="st11" d="M37.8,17.5c0-0.6-0.4-1.2-1-1.2c-0.5,0-1,0.4-1,1.2c0,0.6,0.4,1.2,1,1.2C37.3,18.7,37.8,18.3,37.8,17.5z
			 M36.8,16.8c0.4,0,0.6,0.4,0.6,0.7c0,0.5-0.3,0.7-0.6,0.7c-0.4,0-0.6-0.4-0.6-0.7C36.3,17.1,36.6,16.8,36.8,16.8z"/>
		<path class="st11" d="M39.4,16.4c-0.5,0-1,0.4-1,1.2c0,0.6,0.4,1.2,1,1.2c0.5,0,1-0.4,1-1.2C40.4,17,40,16.4,39.4,16.4z
			 M39.4,16.8c0.4,0,0.6,0.4,0.6,0.7c0,0.5-0.3,0.7-0.6,0.7c-0.4,0-0.6-0.4-0.6-0.7C38.8,17.1,39.1,16.8,39.4,16.8z"/>
		<rect x="41" y="16.4" class="st11" width="0.4" height="2.2"/>
		<path class="st11" d="M44.1,17.5c0-0.6-0.4-1.2-1-1.2c-0.5,0-1,0.4-1,1.2c0,0.6,0.4,1.2,1,1.2C43.6,18.7,44.1,18.3,44.1,17.5z
			 M43,16.8c0.4,0,0.6,0.4,0.6,0.7c0,0.5-0.3,0.7-0.6,0.7c-0.4,0-0.6-0.4-0.6-0.7C42.5,17.1,42.8,16.8,43,16.8z"/>
		<rect x="44.7" y="16.4" class="st11" width="0.4" height="2.2"/>
		<path class="st11" d="M45.7,17.5c0,0.6,0.4,1.2,1,1.2c0.5,0,1-0.4,1-1.2c0-0.6-0.4-1.2-1-1.2C46.2,16.4,45.7,16.8,45.7,17.5z
			 M46.7,16.8c0.4,0,0.6,0.4,0.6,0.7c0,0.5-0.3,0.7-0.6,0.7c-0.4,0-0.6-0.4-0.6-0.7C46.1,17.1,46.4,16.8,46.7,16.8z"/>
		<rect x="48.3" y="16.4" class="st11" width="0.4" height="2.2"/>
		<path class="st11" d="M50.4,18.7c0.5,0,1-0.4,1-1.2c0-0.6-0.4-1.2-1-1.2c-0.5,0-1,0.4-1,1.2C49.4,18.1,49.8,18.7,50.4,18.7z
			 M50.4,16.8c0.4,0,0.6,0.4,0.6,0.7c0,0.5-0.3,0.7-0.6,0.7c-0.4,0-0.6-0.4-0.6-0.7C49.8,17.1,50.1,16.8,50.4,16.8z"/>
		<rect x="52" y="16.4" class="st11" width="0.4" height="2.2"/>
		<rect x="53.1" y="16.4" class="st11" width="0.4" height="2.2"/>
		<path class="st11" d="M55.1,16.4c-0.5,0-1,0.4-1,1.2c0,0.6,0.4,1.2,1,1.2c0.5,0,1-0.4,1-1.2C56.1,17,55.8,16.4,55.1,16.4z
			 M55.1,16.8c0.4,0,0.6,0.4,0.6,0.7c0,0.5-0.3,0.7-0.6,0.7c-0.4,0-0.6-0.4-0.6-0.7C54.6,17.1,54.8,16.8,55.1,16.8z"/>
		<rect x="56.7" y="16.4" class="st11" width="0.4" height="2.2"/>
		<path class="st11" d="M57.8,17.5c0,0.6,0.4,1.2,1,1.2c0.5,0,1-0.4,1-1.2c0-0.6-0.4-1.2-1-1.2C58.3,16.4,57.8,16.8,57.8,17.5z
			 M58.8,16.8c0.4,0,0.6,0.4,0.6,0.7c0,0.5-0.3,0.7-0.6,0.7c-0.4,0-0.6-0.4-0.6-0.7C58.2,17.1,58.5,16.8,58.8,16.8z"/>
		<rect x="60.4" y="16.4" class="st11" width="0.4" height="2.2"/>
		<path class="st11" d="M29.5,19.7c-0.5,0-1,0.4-1,1.2c0,0.6,0.4,1.2,1,1.2c0.5,0,1-0.4,1-1.2C30.5,20.2,30.1,19.7,29.5,19.7z
			 M29.5,20.1c0.4,0,0.6,0.4,0.6,0.7c0,0.5-0.3,0.7-0.6,0.7c-0.4,0-0.6-0.4-0.6-0.7C29,20.4,29.2,20.1,29.5,20.1z"/>
		<path class="st11" d="M32.1,19.7c-0.5,0-1,0.4-1,1.2c0,0.6,0.4,1.2,1,1.2c0.5,0,1-0.4,1-1.2C33.1,20.2,32.7,19.7,32.1,19.7z
			 M32.1,20.1c0.4,0,0.6,0.4,0.6,0.7c0,0.5-0.3,0.7-0.6,0.7c-0.4,0-0.6-0.4-0.6-0.7C31.5,20.4,31.8,20.1,32.1,20.1z"/>
		<path class="st11" d="M35.6,20.8c0-0.6-0.4-1.2-1-1.2c-0.5,0-1,0.4-1,1.2c0,0.6,0.4,1.2,1,1.2C35.1,22,35.6,21.5,35.6,20.8z
			 M34.6,20.1c0.4,0,0.6,0.4,0.6,0.7c0,0.5-0.3,0.7-0.6,0.7c-0.4,0-0.6-0.4-0.6-0.7C34.1,20.4,34.4,20.1,34.6,20.1z"/>
		<rect x="36.3" y="19.7" class="st11" width="0.4" height="2.2"/>
		<path class="st11" d="M39.3,20.8c0-0.6-0.4-1.2-1-1.2c-0.5,0-1,0.4-1,1.2c0,0.6,0.4,1.2,1,1.2C38.8,22,39.3,21.5,39.3,20.8z
			 M38.3,20.1c0.4,0,0.6,0.4,0.6,0.7c0,0.5-0.3,0.7-0.6,0.7c-0.4,0-0.6-0.4-0.6-0.7C37.7,20.4,38,20.1,38.3,20.1z"/>
		<rect x="39.9" y="19.7" class="st11" width="0.4" height="2.2"/>
		<path class="st11" d="M41.9,19.7c-0.5,0-1,0.4-1,1.2c0,0.6,0.4,1.2,1,1.2c0.5,0,1-0.4,1-1.2C43,20.2,42.6,19.7,41.9,19.7z
			 M41.9,20.1c0.4,0,0.6,0.4,0.6,0.7c0,0.5-0.3,0.7-0.6,0.7c-0.4,0-0.6-0.4-0.6-0.7C41.4,20.4,41.7,20.1,41.9,20.1z"/>
		<path class="st11" d="M44.5,19.7c-0.5,0-1,0.4-1,1.2c0,0.6,0.4,1.2,1,1.2c0.5,0,1-0.4,1-1.2C45.5,20.2,45.1,19.7,44.5,19.7z
			 M44.5,20.1c0.4,0,0.6,0.4,0.6,0.7c0,0.5-0.3,0.7-0.6,0.7c-0.4,0-0.6-0.4-0.6-0.7C43.9,20.4,44.2,20.1,44.5,20.1z"/>
		<rect x="46.1" y="19.7" class="st11" width="0.4" height="2.2"/>
		<path class="st11" d="M49.2,20.8c0-0.6-0.4-1.2-1-1.2c-0.5,0-1,0.4-1,1.2c0,0.6,0.4,1.2,1,1.2C48.7,22,49.2,21.5,49.2,20.8z
			 M48.2,20.1c0.4,0,0.6,0.4,0.6,0.7c0,0.5-0.3,0.7-0.6,0.7c-0.4,0-0.6-0.4-0.6-0.7C47.6,20.4,47.9,20.1,48.2,20.1z"/>
		<path class="st11" d="M50.7,19.7c-0.5,0-1,0.4-1,1.2c0,0.6,0.4,1.2,1,1.2c0.5,0,1-0.4,1-1.2C51.7,20.2,51.4,19.7,50.7,19.7z
			 M50.7,20.1c0.4,0,0.6,0.4,0.6,0.7c0,0.5-0.3,0.7-0.6,0.7c-0.4,0-0.6-0.4-0.6-0.7C50.2,20.4,50.4,20.1,50.7,20.1z"/>
		<path class="st11" d="M53.3,19.7c-0.5,0-1,0.4-1,1.2c0,0.6,0.4,1.2,1,1.2c0.5,0,1-0.4,1-1.2C54.3,20.2,53.9,19.7,53.3,19.7z
			 M53.3,20.1c0.4,0,0.6,0.4,0.6,0.7c0,0.5-0.3,0.7-0.6,0.7c-0.4,0-0.6-0.4-0.6-0.7C52.7,20.4,53,20.1,53.3,20.1z"/>
		<path class="st11" d="M55.8,19.7c-0.5,0-1,0.4-1,1.2c0,0.6,0.4,1.2,1,1.2c0.5,0,1-0.4,1-1.2C56.8,20.2,56.5,19.7,55.8,19.7z
			 M55.8,20.1c0.4,0,0.6,0.4,0.6,0.7c0,0.5-0.3,0.7-0.6,0.7c-0.4,0-0.6-0.4-0.6-0.7C55.3,20.4,55.6,20.1,55.8,20.1z"/>
		<rect x="57.5" y="19.7" class="st11" width="0.4" height="2.2"/>
		<path class="st11" d="M59.5,19.7c-0.5,0-1,0.4-1,1.2c0,0.6,0.4,1.2,1,1.2c0.5,0,1-0.4,1-1.2C60.5,20.2,60.1,19.7,59.5,19.7z
			 M59.5,20.1c0.4,0,0.6,0.4,0.6,0.7c0,0.5-0.3,0.7-0.6,0.7c-0.4,0-0.6-0.4-0.6-0.7C58.9,20.4,59.2,20.1,59.5,20.1z"/>
		<rect x="61.1" y="19.7" class="st11" width="0.4" height="2.2"/>
		<path class="st11" d="M29.5,23c-0.5,0-1,0.4-1,1.2c0,0.6,0.4,1.2,1,1.2c0.5,0,1-0.4,1-1.2C30.5,23.5,30.1,23,29.5,23z M29.5,23.4
			c0.4,0,0.6,0.4,0.6,0.7c0,0.5-0.3,0.7-0.6,0.7c-0.4,0-0.6-0.4-0.6-0.7C29,23.7,29.2,23.4,29.5,23.4z"/>
		<path class="st11" d="M32.1,23c-0.5,0-1,0.4-1,1.2c0,0.6,0.4,1.2,1,1.2c0.5,0,1-0.4,1-1.2C33.1,23.5,32.7,23,32.1,23z M32.1,23.4
			c0.4,0,0.6,0.4,0.6,0.7c0,0.5-0.3,0.7-0.6,0.7c-0.4,0-0.6-0.4-0.6-0.7C31.5,23.7,31.8,23.4,32.1,23.4z"/>
		<rect x="33.7" y="23" class="st11" width="0.4" height="2.2"/>
		<path class="st11" d="M35.7,23c-0.5,0-1,0.4-1,1.2c0,0.6,0.4,1.2,1,1.2c0.5,0,1-0.4,1-1.2C36.7,23.5,36.4,23,35.7,23z M35.7,23.4
			c0.4,0,0.6,0.4,0.6,0.7c0,0.5-0.3,0.7-0.6,0.7c-0.4,0-0.6-0.4-0.6-0.7C35.2,23.7,35.5,23.4,35.7,23.4z"/>
		<rect x="37.4" y="23" class="st11" width="0.4" height="2.2"/>
		<path class="st11" d="M39.4,23c-0.5,0-1,0.4-1,1.2c0,0.6,0.4,1.2,1,1.2c0.5,0,1-0.4,1-1.2C40.4,23.5,40,23,39.4,23z M39.4,23.4
			c0.4,0,0.6,0.4,0.6,0.7c0,0.5-0.3,0.7-0.6,0.7c-0.4,0-0.6-0.4-0.6-0.7C38.8,23.7,39.1,23.4,39.4,23.4z"/>
		<rect x="41" y="23" class="st11" width="0.4" height="2.2"/>
		<rect x="42.1" y="23" class="st11" width="0.4" height="2.2"/>
		<path class="st11" d="M44.1,23c-0.5,0-1,0.4-1,1.2c0,0.6,0.4,1.2,1,1.2c0.5,0,1-0.4,1-1.2C45.2,23.5,44.8,23,44.1,23z M44.1,23.4
			c0.4,0,0.6,0.4,0.6,0.7c0,0.5-0.3,0.7-0.6,0.7c-0.4,0-0.6-0.4-0.6-0.7C43.6,23.7,43.9,23.4,44.1,23.4z"/>
		<path class="st11" d="M46.7,23c-0.5,0-1,0.4-1,1.2c0,0.6,0.4,1.2,1,1.2c0.5,0,1-0.4,1-1.2C47.7,23.5,47.3,23,46.7,23z M46.7,23.4
			c0.4,0,0.6,0.4,0.6,0.7c0,0.5-0.3,0.7-0.6,0.7c-0.4,0-0.6-0.4-0.6-0.7C46.1,23.7,46.4,23.4,46.7,23.4z"/>
		<path class="st11" d="M49.3,23c-0.5,0-1,0.4-1,1.2c0,0.6,0.4,1.2,1,1.2c0.5,0,1-0.4,1-1.2C50.3,23.5,49.9,23,49.3,23z M49.3,23.4
			c0.4,0,0.6,0.4,0.6,0.7c0,0.5-0.3,0.7-0.6,0.7c-0.4,0-0.6-0.4-0.6-0.7C48.7,23.7,49,23.4,49.3,23.4z"/>
		<rect x="50.9" y="23" class="st11" width="0.4" height="2.2"/>
		<path class="st11" d="M52.9,23c-0.5,0-1,0.4-1,1.2c0,0.6,0.4,1.2,1,1.2c0.5,0,1-0.4,1-1.2C53.9,23.5,53.6,23,52.9,23z M52.9,23.4
			c0.4,0,0.6,0.4,0.6,0.7c0,0.5-0.3,0.7-0.6,0.7c-0.4,0-0.6-0.4-0.6-0.7C52.4,23.7,52.6,23.4,52.9,23.4z"/>
		<path class="st11" d="M55.5,23c-0.5,0-1,0.4-1,1.2c0,0.6,0.4,1.2,1,1.2c0.5,0,1-0.4,1-1.2C56.5,23.5,56.1,23,55.5,23z M55.5,23.4
			c0.4,0,0.6,0.4,0.6,0.7c0,0.5-0.3,0.7-0.6,0.7c-0.4,0-0.6-0.4-0.6-0.7C54.9,23.7,55.2,23.4,55.5,23.4z"/>
		<rect x="57.1" y="23" class="st11" width="0.4" height="2.2"/>
		<path class="st11" d="M59.1,23c-0.5,0-1,0.4-1,1.2c0,0.6,0.4,1.2,1,1.2c0.5,0,1-0.4,1-1.2C60.1,23.5,59.8,23,59.1,23z M59.1,23.4
			c0.4,0,0.6,0.4,0.6,0.7c0,0.5-0.3,0.7-0.6,0.7c-0.4,0-0.6-0.4-0.6-0.7C58.6,23.7,58.9,23.4,59.1,23.4z"/>
		<path class="st11" d="M61.7,23c-0.5,0-1,0.4-1,1.2c0,0.6,0.4,1.2,1,1.2c0.5,0,1-0.4,1-1.2C62.7,23.5,62.3,23,61.7,23z M61.7,23.4
			c0.4,0,0.6,0.4,0.6,0.7c0,0.5-0.3,0.7-0.6,0.7c-0.4,0-0.6-0.4-0.6-0.7C61.1,23.7,61.4,23.4,61.7,23.4z"/>
	</g>
</g>
<linearGradient id="SVGID_9_" gradientUnits="userSpaceOnUse" x1="153.9104" y1="7.6973" x2="153.9104" y2="27.4444">
	<stop  offset="0" style="stop-color:#E53834"/>
	<stop  offset="1" style="stop-color:#C43738"/>
</linearGradient>
<path class="st12" d="M147.5,27.4c-0.1,0-0.2-0.1-0.2-0.2V9c0-0.4,0.1-0.7,0.4-0.9c0.3-0.3,0.6-0.4,0.9-0.4c0.4,0,0.7,0.1,0.9,0.4
	c0.3,0.3,0.4,0.6,0.4,0.9v15.6c0,0.1,0.1,0.2,0.2,0.2h9c0.4,0,0.7,0.1,0.9,0.4c0.3,0.3,0.4,0.6,0.4,0.9c0,0.4-0.1,0.7-0.4,0.9
	c-0.3,0.3-0.6,0.4-0.9,0.4H147.5z"/>
<linearGradient id="SVGID_10_" gradientUnits="userSpaceOnUse" x1="169.7058" y1="7.6973" x2="169.7058" y2="27.4444">
	<stop  offset="0" style="stop-color:#E53834"/>
	<stop  offset="1" style="stop-color:#C43738"/>
</linearGradient>
<path class="st13" d="M163.2,25.6l5.3-16.9c0.2-0.7,0.6-1,1.3-1c0.6,0,1.1,0.3,1.2,0.8l5.2,17.2c0,0.1,0.1,0.3,0.1,0.4
	c0,0.4-0.1,0.7-0.4,0.9c-0.3,0.3-0.5,0.4-0.9,0.4c-0.7,0-1.1-0.3-1.3-1l-1-3.4c0-0.1-0.1-0.2-0.2-0.2h-5.6c-0.1,0-0.2,0.1-0.2,0.2
	l-1.1,3.6c0,0.2-0.2,0.3-0.4,0.5c-0.2,0.2-0.5,0.2-0.7,0.2c-0.4,0-0.7-0.1-1-0.4c-0.2-0.3-0.4-0.6-0.4-1
	C163.1,25.9,163.1,25.8,163.2,25.6z M169.6,13.3l-2,6.8c0,0.1,0,0.2,0.1,0.2h4c0.1,0,0.2-0.1,0.1-0.2l-2-6.8
	C169.9,13.1,169.7,13.1,169.6,13.3z"/>
<linearGradient id="SVGID_11_" gradientUnits="userSpaceOnUse" x1="185.8815" y1="7.6973" x2="185.8815" y2="27.4444">
	<stop  offset="0" style="stop-color:#E53834"/>
	<stop  offset="1" style="stop-color:#C43738"/>
</linearGradient>
<path class="st14" d="M192.5,21v1.2c0,1.4-0.5,2.7-1.5,3.7c-1,1-2.3,1.6-3.7,1.6h-7.9c-0.1,0-0.1-0.1-0.1-0.1V7.8
	c0-0.1,0.1-0.1,0.1-0.1l7.9,0c1.3,0,2.5,0.4,3.4,1.3c1.2,1.1,1.8,2.4,1.8,4v0.1c0,1.6-0.6,2.9-1.8,4C191.9,18.2,192.5,19.5,192.5,21
	z M189.8,13.1L189.8,13.1c0-0.8-0.3-1.4-0.8-2c-0.5-0.5-1.1-0.8-1.9-0.8H182c-0.1,0-0.1,0.1-0.1,0.1v5.1c0,0.1,0.1,0.1,0.1,0.1h5.2
	c0.7,0,1.3-0.3,1.8-0.8C189.6,14.4,189.8,13.8,189.8,13.1z M189.8,22.2v-1c0-0.7-0.2-1.4-0.7-1.9c-0.5-0.6-1.2-0.8-1.9-0.8H182
	c-0.1,0-0.1,0.1-0.1,0.1v6.1c0,0.1,0.1,0.1,0.1,0.1h5.2c0.7,0,1.3-0.3,1.8-0.8S189.8,22.9,189.8,22.2z"/>
<linearGradient id="SVGID_12_" gradientUnits="userSpaceOnUse" x1="201.8671" y1="7.6973" x2="201.8671" y2="27.4444">
	<stop  offset="0" style="stop-color:#E53834"/>
	<stop  offset="1" style="stop-color:#C43738"/>
</linearGradient>
<path class="st15" d="M198.2,7.7h6.8c0.8,0,1.6,0.4,2.4,1.1c0.7,0.7,1.1,1.6,1.1,2.6c0,0.4-0.1,0.7-0.4,1c-0.3,0.3-0.6,0.4-0.9,0.4
	c-0.4,0-0.8-0.1-0.9-0.3c-0.2-0.2-0.3-0.6-0.5-1.1c-0.2-0.6-0.5-0.8-1-0.8h-6.5c-0.3,0-0.5,0.1-0.5,0.3c0,0.1,0.1,0.3,0.2,0.4
	l9.7,11.4c0.5,0.6,0.7,1.2,0.7,1.9c0,0.8-0.3,1.5-0.9,2.1c-0.6,0.6-1.2,0.9-1.9,0.9h-7.1c-0.9,0-1.8-0.4-2.4-1.1
	c-0.7-0.7-1-1.5-1-2.3c0-1,0.5-1.5,1.4-1.5c0.4,0,0.7,0.1,0.9,0.4c0.3,0.3,0.4,0.6,0.4,0.9c0,0.3,0.1,0.5,0.3,0.7
	c0.2,0.2,0.4,0.3,0.7,0.3h6.5c0.3,0,0.4-0.1,0.4-0.3c0-0.1-0.1-0.2-0.2-0.4l-9.7-11.4c-0.5-0.6-0.7-1.2-0.7-1.9
	c0-0.8,0.3-1.5,0.9-2.1C196.7,8,197.4,7.7,198.2,7.7z"/>
</svg>
